<svg xmlns="http://www.w3.org/2000/svg" width="56" height="56" viewBox="0 0 56 56">
  <g fill="none" fill-rule="evenodd">
    <rect width="55.021" height="55.021" fill="#FFAF30" rx="4"/>
    <path fill="#FFF" d="M38.218 39.729H17.781c-1.559 0-2.781-1.453-2.781-3.307V21.431c0-1.854.7-3.174 2.26-3.174h6.783v-1.13c0-.608.37-1.127.985-1.127.616 0 1.115.494 1.115 1.102l.161 1.155h3.392l.161-1.155c0-.608.499-1.102 1.114-1.102.616 0 1.114.494 1.114 1.102l-.128 1.155h6.782c1.56 0 2.261 1.32 2.261 3.174v14.991c0 1.854-1.222 3.307-2.782 3.307zm0-19.4h-6.133v.447c0 .608-.644.873-1.259.873-.616 0-.969-.265-.969-.873v-.448h-3.714v.448c0 .608-.354.873-.97.873-.615 0-1.258-.265-1.258-.873v-.448l-6.654.19c-.195 0-.033.229-.033.913l.033 2.479h21.478l.033-2.48c0-.683-.358-1.102-.554-1.102zm.554 16.093l-.033-10.251H17.261l-.033 10.251c0 .684-.162 1.053.033 1.053h21.478c.195 0 .033-.369.033-1.053zm-14.729-2.338h-3.39v-3.392c0-.406-.12-1.097.29-1.097h3.467c.41 0 .742.327.742.734v3.428c0 .406-.698.327-1.109.327zm-3.39 0c-.411 0 0-.328 0 0z"/>
  </g>
</svg>
