<!-- Generated by IcoMoon.io -->
<svg version="1.1" xmlns="http://www.w3.org/2000/svg" width="14" height="14" viewBox="0 0 14 14" background-color="rgba(244, 247, 249, 0.4)" >
<title>calendar</title>
<path d="M5.271 7.42c-0.078 0.112-0.173 0.394-0.285 0.463s-0.239 0.117-0.38 0.143c-0.141 0.027-0.287 0.039-0.438 0.035v0.668h1.079v2.645h0.871v-4.373h-0.693c-0.024 0.167-0.076 0.306-0.154 0.419zM10.063 3.5h0.875c0.242 0 0.438-0.196 0.438-0.438v-2.625c0-0.242-0.196-0.438-0.438-0.438h-0.875c-0.242 0-0.438 0.196-0.438 0.438v2.625c0 0.241 0.196 0.438 0.438 0.438zM3.063 3.5h0.875c0.242 0 0.438-0.196 0.438-0.438v-2.625c0-0.242-0.196-0.438-0.438-0.438h-0.875c-0.241 0-0.438 0.196-0.438 0.438v2.625c0 0.241 0.196 0.438 0.438 0.438zM13.125 1.75h-0.875v2.188c0 0.242-0.196 0.438-0.438 0.438h-2.625c-0.242 0-0.438-0.196-0.438-0.438v-2.188h-3.5v2.188c0 0.242-0.196 0.438-0.438 0.438h-2.625c-0.241 0-0.438-0.196-0.438-0.438v-2.188h-0.875c-0.483 0-0.875 0.392-0.875 0.875v10.5c0 0.483 0.392 0.875 0.875 0.875h12.25c0.483 0 0.875-0.392 0.875-0.875v-10.5c0-0.483-0.392-0.875-0.875-0.875zM13.125 12.688c0 0.242-0.196 0.438-0.438 0.438h-11.375c-0.242 0-0.438-0.196-0.438-0.438v-7c0-0.242 0.196-0.438 0.438-0.438h11.375c0.242 0 0.438 0.196 0.438 0.438v7zM6.993 7.867h2.173c-0.409 0.504-0.739 1.017-0.991 1.621s-0.279 1.233-0.328 1.887h0.932c0.004-0.291-0.085-0.606-0.022-0.943s0.154-0.67 0.27-1c0.117-0.329 0.262-0.639 0.436-0.931s0.373-0.538 0.598-0.738v-0.762h-3.069v0.866z"></path>
</svg>
