<?xml version="1.0" encoding="UTF-8"?>
<svg width="13px" height="11px" viewBox="0 0 13 11" version="1.1" xmlns="http://www.w3.org/2000/svg" xmlns:xlink="http://www.w3.org/1999/xlink">
    <!-- Generator: sketchtool 48.1 (47250) - http://www.bohemiancoding.com/sketch -->
    <title>1E872BC5-20C8-4700-B4DA-3520A8F36666</title>
    <desc>Created with sketchtool.</desc>
    <defs></defs>
    <g id="Admin---Cancelled-requests" stroke="none" stroke-width="1" fill="none" fill-rule="evenodd" transform="translate(-1299.000000, -136.000000)">
        <g id="Top" transform="translate(141.000000, 92.000000)" fill="#3359DB" stroke="#3359DB" stroke-width="0.2">
            <g id="Export-button">
                <g transform="translate(1088.000000, 30.000000)">
                    <path d="M76.7624888,22.2267608 C76.7588222,22.2306108 76.7529555,22.2289608 76.7491056,22.2324441 C76.6864061,22.2912937 76.6037234,22.3275934 76.5118741,22.3305267 C76.5109574,22.3305267 76.5102241,22.3305267 76.5094908,22.3308934 C76.4110415,22.3338267 76.3124089,22.3021102 76.2372429,22.2267608 L74.0392765,19.6626806 C73.894811,19.5183984 73.894811,19.2837336 74.0392765,19.1390847 C74.1839254,18.9948025 74.4180403,18.9948025 74.5625058,19.1390847 L76.1331103,20.9718539 L76.1331103,15.3664805 C76.1331103,15.1642654 76.2973757,15 76.4997742,15 C76.7023559,15 76.8666213,15.1642654 76.8666213,15.3664805 L76.8666213,20.9718539 L78.4372259,19.1390847 C78.5816914,18.9948025 78.8159896,18.9948025 78.9604552,19.1390847 C79.1049207,19.2837336 79.1049207,19.5183984 78.9604552,19.6626806 L76.7624888,22.2267608 Z M81.6332512,24.532893 L71.3666638,24.532893 C71.1640821,24.532893 71,24.3691776 71,24.1662292 L71,21.2331018 C71,21.0308867 71.1640821,20.866438 71.3666638,20.866438 C71.5690623,20.866438 71.7333277,21.0308867 71.7333277,21.2331018 L71.7333277,23.7995653 L81.2665873,23.7995653 L81.2665873,21.2331018 C81.2665873,21.0308867 81.4308527,20.866438 81.6332512,20.866438 C81.8356496,20.866438 81.999915,21.0308867 81.999915,21.2331018 L81.999915,24.1662292 C81.999915,24.3691776 81.8356496,24.532893 81.6332512,24.532893 L81.6332512,24.532893 Z" id="Fill-1"></path>
                </g>
            </g>
        </g>
    </g>
</svg>
