<svg width="24" height="24" xmlns="http://www.w3.org/2000/svg">
 <title/>
 <desc/>

 <g>
  <title>background</title>
  <rect fill="none" id="canvas_background" height="402" width="582" y="-1" x="-1"/>
 </g>
 <g>
  <title>Layer 1</title>
  <path id="circle-backup-time-history-recent-time-machine-glyph" fill="#aeaeae" d="m2.18138,10c0.94051,-5.12024 5.42648,-9 10.81862,-9c6.07513,0 11,4.92487 11,11c0,6.07513 -4.92487,11 -11,11c-4.27273,0 -7.97648,-2.4361 -9.79808,-5.99512l2.3169,0c1.61496,2.40924 4.36287,3.99512 7.48118,3.99512c4.97056,0 9,-4.02944 9,-9c0,-4.97056 -4.02944,-9 -9,-9c-4.28317,0 -7.86753,2.99202 -8.77698,7l-2.04164,0l0,0zm10.31862,2.34963l5.21069,3.0717l0.50783,-0.86146l-4.71852,-2.80548l0,-6.72265l-1,0l0,7.31789zm-9.5,1.65037l3,-4l-6,0l3,4z"/>
 </g>
</svg>
